<mxfile host="app.diagrams.net" agent="Mozilla/5.0 (Windows NT 10.0; Win64; x64) AppleWebKit/537.36 (KHTML, like Gecko) Chrome/131.0.0.0 Safari/537.36 Edg/131.0.0.0" version="24.9.0">
  <diagram name="หน้า-1" id="d9RKIHsXd00LlrnY3izp">
    <mxGraphModel dx="1334" dy="621" grid="1" gridSize="10" guides="1" tooltips="1" connect="1" arrows="1" fold="1" page="1" pageScale="1" pageWidth="827" pageHeight="1169" math="0" shadow="0">
      <root>
        <mxCell id="0" />
        <mxCell id="1" parent="0" />
        <mxCell id="xRrjv5If0tpF9JTXinsI-1" value="" style="edgeStyle=orthogonalEdgeStyle;rounded=0;orthogonalLoop=1;jettySize=auto;html=1;" edge="1" parent="1" source="xRrjv5If0tpF9JTXinsI-2" target="xRrjv5If0tpF9JTXinsI-11">
          <mxGeometry relative="1" as="geometry" />
        </mxCell>
        <mxCell id="xRrjv5If0tpF9JTXinsI-2" value="Start" style="ellipse;whiteSpace=wrap;html=1;" vertex="1" parent="1">
          <mxGeometry x="354" y="20" width="120" height="80" as="geometry" />
        </mxCell>
        <mxCell id="xRrjv5If0tpF9JTXinsI-3" value="" style="edgeStyle=orthogonalEdgeStyle;rounded=0;orthogonalLoop=1;jettySize=auto;html=1;" edge="1" parent="1" source="xRrjv5If0tpF9JTXinsI-4">
          <mxGeometry relative="1" as="geometry">
            <mxPoint x="414" y="350" as="targetPoint" />
          </mxGeometry>
        </mxCell>
        <mxCell id="xRrjv5If0tpF9JTXinsI-4" value="จัด&amp;nbsp;CODEX" style="rounded=0;whiteSpace=wrap;html=1;" vertex="1" parent="1">
          <mxGeometry x="354" y="220" width="120" height="60" as="geometry" />
        </mxCell>
        <mxCell id="xRrjv5If0tpF9JTXinsI-5" value="" style="edgeStyle=orthogonalEdgeStyle;rounded=0;orthogonalLoop=1;jettySize=auto;html=1;" edge="1" parent="1" source="xRrjv5If0tpF9JTXinsI-7" target="xRrjv5If0tpF9JTXinsI-9">
          <mxGeometry relative="1" as="geometry" />
        </mxCell>
        <mxCell id="xRrjv5If0tpF9JTXinsI-6" value="" style="edgeStyle=orthogonalEdgeStyle;rounded=0;orthogonalLoop=1;jettySize=auto;html=1;" edge="1" parent="1" source="xRrjv5If0tpF9JTXinsI-7" target="xRrjv5If0tpF9JTXinsI-19">
          <mxGeometry relative="1" as="geometry" />
        </mxCell>
        <mxCell id="xRrjv5If0tpF9JTXinsI-7" value="จัดCODEXถูกหรือไม่" style="rhombus;whiteSpace=wrap;html=1;" vertex="1" parent="1">
          <mxGeometry x="354" y="350" width="120" height="80" as="geometry" />
        </mxCell>
        <mxCell id="xRrjv5If0tpF9JTXinsI-8" value="" style="edgeStyle=orthogonalEdgeStyle;rounded=0;orthogonalLoop=1;jettySize=auto;html=1;entryX=0;entryY=0.5;entryDx=0;entryDy=0;" edge="1" parent="1" source="xRrjv5If0tpF9JTXinsI-9" target="xRrjv5If0tpF9JTXinsI-11">
          <mxGeometry relative="1" as="geometry">
            <mxPoint x="214" y="250" as="targetPoint" />
            <Array as="points">
              <mxPoint x="214" y="150" />
            </Array>
          </mxGeometry>
        </mxCell>
        <mxCell id="xRrjv5If0tpF9JTXinsI-9" value="ตรวจCodexใหม่" style="whiteSpace=wrap;html=1;" vertex="1" parent="1">
          <mxGeometry x="154" y="360" width="120" height="60" as="geometry" />
        </mxCell>
        <mxCell id="xRrjv5If0tpF9JTXinsI-10" value="" style="edgeStyle=orthogonalEdgeStyle;rounded=0;orthogonalLoop=1;jettySize=auto;html=1;" edge="1" parent="1" source="xRrjv5If0tpF9JTXinsI-11" target="xRrjv5If0tpF9JTXinsI-4">
          <mxGeometry relative="1" as="geometry" />
        </mxCell>
        <mxCell id="xRrjv5If0tpF9JTXinsI-11" value="" style="ellipse;whiteSpace=wrap;html=1;aspect=fixed;" vertex="1" parent="1">
          <mxGeometry x="404" y="140" width="20" height="20" as="geometry" />
        </mxCell>
        <mxCell id="xRrjv5If0tpF9JTXinsI-12" value="End" style="ellipse;whiteSpace=wrap;html=1;" vertex="1" parent="1">
          <mxGeometry x="354" y="720" width="120" height="80" as="geometry" />
        </mxCell>
        <mxCell id="xRrjv5If0tpF9JTXinsI-13" value="no" style="text;html=1;align=center;verticalAlign=middle;whiteSpace=wrap;rounded=0;" vertex="1" parent="1">
          <mxGeometry x="320" y="360" width="60" height="30" as="geometry" />
        </mxCell>
        <mxCell id="xRrjv5If0tpF9JTXinsI-14" value="yes" style="text;html=1;align=center;verticalAlign=middle;whiteSpace=wrap;rounded=0;" vertex="1" parent="1">
          <mxGeometry x="424" y="410" width="60" height="30" as="geometry" />
        </mxCell>
        <mxCell id="xRrjv5If0tpF9JTXinsI-15" value="" style="edgeStyle=orthogonalEdgeStyle;rounded=0;orthogonalLoop=1;jettySize=auto;html=1;" edge="1" parent="1" source="xRrjv5If0tpF9JTXinsI-17" target="xRrjv5If0tpF9JTXinsI-12">
          <mxGeometry relative="1" as="geometry" />
        </mxCell>
        <mxCell id="xRrjv5If0tpF9JTXinsI-16" value="" style="edgeStyle=orthogonalEdgeStyle;rounded=0;orthogonalLoop=1;jettySize=auto;html=1;" edge="1" parent="1" source="xRrjv5If0tpF9JTXinsI-17" target="xRrjv5If0tpF9JTXinsI-21">
          <mxGeometry relative="1" as="geometry" />
        </mxCell>
        <mxCell id="xRrjv5If0tpF9JTXinsI-17" value="coderunได้ไหม" style="rhombus;whiteSpace=wrap;html=1;" vertex="1" parent="1">
          <mxGeometry x="354" y="560" width="120" height="80" as="geometry" />
        </mxCell>
        <mxCell id="xRrjv5If0tpF9JTXinsI-18" value="" style="edgeStyle=orthogonalEdgeStyle;rounded=0;orthogonalLoop=1;jettySize=auto;html=1;" edge="1" parent="1" source="xRrjv5If0tpF9JTXinsI-19" target="xRrjv5If0tpF9JTXinsI-17">
          <mxGeometry relative="1" as="geometry" />
        </mxCell>
        <mxCell id="xRrjv5If0tpF9JTXinsI-19" value="" style="ellipse;whiteSpace=wrap;html=1;aspect=fixed;" vertex="1" parent="1">
          <mxGeometry x="404" y="490" width="20" height="20" as="geometry" />
        </mxCell>
        <mxCell id="xRrjv5If0tpF9JTXinsI-20" value="" style="edgeStyle=orthogonalEdgeStyle;rounded=0;orthogonalLoop=1;jettySize=auto;html=1;" edge="1" parent="1" source="xRrjv5If0tpF9JTXinsI-21" target="xRrjv5If0tpF9JTXinsI-25">
          <mxGeometry relative="1" as="geometry" />
        </mxCell>
        <mxCell id="xRrjv5If0tpF9JTXinsI-21" value="ตรวจCodeใหม่" style="whiteSpace=wrap;html=1;" vertex="1" parent="1">
          <mxGeometry x="154" y="570" width="120" height="60" as="geometry" />
        </mxCell>
        <mxCell id="xRrjv5If0tpF9JTXinsI-22" value="yes" style="text;html=1;align=center;verticalAlign=middle;whiteSpace=wrap;rounded=0;" vertex="1" parent="1">
          <mxGeometry x="414" y="630" width="60" height="30" as="geometry" />
        </mxCell>
        <mxCell id="xRrjv5If0tpF9JTXinsI-23" value="no" style="text;html=1;align=center;verticalAlign=middle;whiteSpace=wrap;rounded=0;" vertex="1" parent="1">
          <mxGeometry x="320" y="560" width="60" height="30" as="geometry" />
        </mxCell>
        <mxCell id="xRrjv5If0tpF9JTXinsI-24" value="" style="edgeStyle=orthogonalEdgeStyle;rounded=0;orthogonalLoop=1;jettySize=auto;html=1;" edge="1" parent="1" source="xRrjv5If0tpF9JTXinsI-25" target="xRrjv5If0tpF9JTXinsI-19">
          <mxGeometry relative="1" as="geometry" />
        </mxCell>
        <mxCell id="xRrjv5If0tpF9JTXinsI-25" value="แก้Codeใหม่" style="whiteSpace=wrap;html=1;" vertex="1" parent="1">
          <mxGeometry x="154" y="470" width="120" height="60" as="geometry" />
        </mxCell>
      </root>
    </mxGraphModel>
  </diagram>
</mxfile>
